<svg xmlns="http://www.w3.org/2000/svg" viewBox="0 0 400 240" fill="none">
  <!-- Background -->
  <defs>
    <!-- Main gradient -->
    <linearGradient id="bgGradient" x1="0%" y1="0%" x2="100%" y2="100%">
      <stop offset="0%" style="stop-color:#f0f9ff;stop-opacity:1" />
      <stop offset="50%" style="stop-color:#e0f2fe;stop-opacity:1" />
      <stop offset="100%" style="stop-color:#dbeafe;stop-opacity:1" />
    </linearGradient>

    <!-- Accent gradient for borders -->
    <linearGradient id="accentGradient" x1="0%" y1="0%" x2="100%" y2="0%">
      <stop offset="0%" style="stop-color:#0ea5e9;stop-opacity:1" />
      <stop offset="100%" style="stop-color:#0284c7;stop-opacity:1" />
    </linearGradient>

    <!-- Icon gradient -->
    <linearGradient id="iconGradient" x1="0%" y1="0%" x2="100%" y2="100%">
      <stop offset="0%" style="stop-color:#0047ab;stop-opacity:0.9" />
      <stop offset="100%" style="stop-color:#0ea5e9;stop-opacity:0.7" />
    </linearGradient>

    <!-- Pattern for background texture -->
    <pattern id="dots" x="0" y="0" width="30" height="30" patternUnits="userSpaceOnUse">
      <circle cx="2" cy="2" r="1.2" fill="#0ea5e9" opacity="0.08"/>
    </pattern>
  </defs>

  <!-- Main ticket body -->
  <rect width="400" height="240" fill="url(#bgGradient)"/>
  <rect width="400" height="240" fill="url(#dots)"/>

  <!-- Top accent border -->
  <rect x="0" y="0" width="400" height="6" fill="url(#accentGradient)"/>

  <!-- Bottom accent border -->
  <rect x="0" y="234" width="400" height="6" fill="url(#accentGradient)"/>

  <!-- Left perforation edge -->
  <g opacity="0.3">
    <circle cx="0" cy="30" r="8" fill="white"/>
    <circle cx="0" cy="50" r="8" fill="white"/>
    <circle cx="0" cy="70" r="8" fill="white"/>
    <circle cx="0" cy="90" r="8" fill="white"/>
    <circle cx="0" cy="110" r="8" fill="white"/>
    <circle cx="0" cy="130" r="8" fill="white"/>
    <circle cx="0" cy="150" r="8" fill="white"/>
    <circle cx="0" cy="170" r="8" fill="white"/>
    <circle cx="0" cy="190" r="8" fill="white"/>
    <circle cx="0" cy="210" r="8" fill="white"/>
  </g>

  <!-- Right perforation edge -->
  <g opacity="0.3">
    <circle cx="400" cy="30" r="8" fill="white"/>
    <circle cx="400" cy="50" r="8" fill="white"/>
    <circle cx="400" cy="70" r="8" fill="white"/>
    <circle cx="400" cy="90" r="8" fill="white"/>
    <circle cx="400" cy="110" r="8" fill="white"/>
    <circle cx="400" cy="130" r="8" fill="white"/>
    <circle cx="400" cy="150" r="8" fill="white"/>
    <circle cx="400" cy="170" r="8" fill="white"/>
    <circle cx="400" cy="190" r="8" fill="white"/>
    <circle cx="400" cy="210" r="8" fill="white"/>
  </g>

  <!-- Vertical dashed line (perforation) -->
  <line x1="200" y1="20" x2="200" y2="220"
        stroke="#0ea5e9" stroke-width="2"
        stroke-dasharray="6,6" opacity="0.3"
        stroke-linecap="round"/>

  <!-- Decorative corner brackets -->
  <g stroke="#0ea5e9" stroke-width="2.5" fill="none" opacity="0.4" stroke-linecap="round" stroke-linejoin="round">
    <!-- Top left -->
    <path d="M 30,20 L 20,20 L 20,30"/>
    <!-- Top right -->
    <path d="M 370,20 L 380,20 L 380,30"/>
    <!-- Bottom left -->
    <path d="M 30,220 L 20,220 L 20,210"/>
    <!-- Bottom right -->
    <path d="M 370,220 L 380,220 L 380,210"/>
  </g>

  <!-- Center icon - Service/Ticket symbol -->
  <g transform="translate(200, 120)">
    <!-- Circular background -->
    <circle cx="0" cy="0" r="55" fill="white" opacity="0.7"/>
    <circle cx="0" cy="0" r="50" fill="url(#iconGradient)" opacity="0.15"/>

    <!-- Ticket/Service icon -->
    <g fill="url(#iconGradient)">
      <!-- Ticket shape -->
      <rect x="-35" y="-20" width="70" height="40" rx="4" opacity="0.8"/>

      <!-- Stub line -->
      <line x1="0" y1="-20" x2="0" y2="20" stroke="white" stroke-width="1.5" stroke-dasharray="3,3" opacity="0.6"/>

      <!-- Star icon in center -->
      <path d="M 0,-10 L 3,-3 L 10,-3 L 5,2 L 7,9 L 0,5 L -7,9 L -5,2 L -10,-3 L -3,-3 Z"
            fill="white" opacity="0.9"/>
    </g>

    <!-- Decorative rings around icon -->
    <circle cx="0" cy="0" r="50" stroke="url(#accentGradient)" stroke-width="2" fill="none" opacity="0.3"/>
    <circle cx="0" cy="0" r="45" stroke="url(#accentGradient)" stroke-width="1" fill="none" opacity="0.2"/>
  </g>

  <!-- Small decorative elements -->
  <g fill="#0ea5e9" opacity="0.25">
    <!-- Top corners -->
    <circle cx="50" cy="40" r="3"/>
    <circle cx="350" cy="40" r="3"/>
    <!-- Bottom corners -->
    <circle cx="50" cy="200" r="3"/>
    <circle cx="350" cy="200" r="3"/>
  </g>

  <!-- Barcode-like decoration at bottom -->
  <g transform="translate(100, 200)" opacity="0.2">
    <rect x="0" y="0" width="2" height="15" fill="#0ea5e9"/>
    <rect x="5" y="0" width="3" height="15" fill="#0ea5e9"/>
    <rect x="12" y="0" width="1" height="15" fill="#0ea5e9"/>
    <rect x="16" y="0" width="2" height="15" fill="#0ea5e9"/>
    <rect x="21" y="0" width="4" height="15" fill="#0ea5e9"/>
    <rect x="28" y="0" width="1" height="15" fill="#0ea5e9"/>
    <rect x="32" y="0" width="2" height="15" fill="#0ea5e9"/>
    <rect x="37" y="0" width="3" height="15" fill="#0ea5e9"/>

    <rect x="45" y="0" width="2" height="15" fill="#0ea5e9"/>
    <rect x="50" y="0" width="1" height="15" fill="#0ea5e9"/>
    <rect x="54" y="0" width="3" height="15" fill="#0ea5e9"/>
    <rect x="60" y="0" width="2" height="15" fill="#0ea5e9"/>
    <rect x="65" y="0" width="4" height="15" fill="#0ea5e9"/>
    <rect x="72" y="0" width="1" height="15" fill="#0ea5e9"/>
    <rect x="76" y="0" width="2" height="15" fill="#0ea5e9"/>
    <rect x="81" y="0" width="3" height="15" fill="#0ea5e9"/>

    <rect x="89" y="0" width="1" height="15" fill="#0ea5e9"/>
    <rect x="93" y="0" width="3" height="15" fill="#0ea5e9"/>
    <rect x="99" y="0" width="2" height="15" fill="#0ea5e9"/>
    <rect x="104" y="0" width="4" height="15" fill="#0ea5e9"/>
    <rect x="111" y="0" width="2" height="15" fill="#0ea5e9"/>
    <rect x="116" y="0" width="1" height="15" fill="#0ea5e9"/>
    <rect x="120" y="0" width="3" height="15" fill="#0ea5e9"/>
    <rect x="126" y="0" width="2" height="15" fill="#0ea5e9"/>

    <rect x="133" y="0" width="2" height="15" fill="#0ea5e9"/>
    <rect x="138" y="0" width="4" height="15" fill="#0ea5e9"/>
    <rect x="145" y="0" width="1" height="15" fill="#0ea5e9"/>
    <rect x="149" y="0" width="3" height="15" fill="#0ea5e9"/>
    <rect x="155" y="0" width="2" height="15" fill="#0ea5e9"/>
    <rect x="160" y="0" width="1" height="15" fill="#0ea5e9"/>
    <rect x="164" y="0" width="4" height="15" fill="#0ea5e9"/>
    <rect x="171" y="0" width="2" height="15" fill="#0ea5e9"/>
  </g>

  <!-- Top label area suggestion -->
  <g opacity="0.15">
    <rect x="60" y="30" width="120" height="25" rx="4" fill="#0ea5e9"/>
    <rect x="220" y="30" width="120" height="25" rx="4" fill="#0ea5e9"/>
  </g>
</svg>
